<svg width="244.073779296875px" height="126.8px" xmlns="http://www.w3.org/2000/svg" viewBox="127.9631103515625 11.600000000000001 244.073779296875 126.8" style="background: rgba(0, 0, 0, 0);" preserveAspectRatio="xMidYMid"><defs><filter id="editing-hole" x="-100%" y="-100%" width="300%" height="300%"><feFlood flood-color="#909090" result="black"></feFlood><feMorphology operator="dilate" radius="2" in="SourceGraphic" result="erode"></feMorphology><feGaussianBlur in="erode" stdDeviation="4" result="blur"></feGaussianBlur><feOffset in="blur" dx="2" dy="2" result="offset"></feOffset><feComposite operator="atop" in="offset" in2="black" result="merge"></feComposite><feComposite operator="in" in="merge" in2="SourceGraphic" result="inner-shadow"></feComposite></filter></defs><g filter="url(#editing-hole)"><g transform="translate(168.28363978862762, 99.09500122070312)"><path d="M22.27-35.46L22.27-35.46L22.53-37.44L22.53-37.44Q22.53-40.38 20.22-41.22L20.22-41.22L20.22-41.22Q18.43-41.79 17.47-41.79L17.47-41.79L17.41-41.79L17.41-41.79Q15.49-41.79 14.08-41.18L14.08-41.18L14.08-41.18Q12.67-40.58 12.03-39.68L12.03-39.68L12.03-39.68Q10.69-37.82 10.50-35.78L10.50-35.78L10.50-35.78Q10.50-33.34 12.67-31.58L12.67-31.58L12.67-31.58Q14.85-29.82 17.95-28.51L17.95-28.51L17.95-28.51Q21.06-27.20 24.16-25.66L24.16-25.66L24.16-25.66Q27.26-24.13 29.44-21.25L29.44-21.25L29.44-21.25Q31.62-18.37 31.62-14.34L31.62-14.34L31.62-14.34Q31.62-6.46 26.66-2.56L26.66-2.56L26.66-2.56Q21.70 1.34 15.39 1.34L15.39 1.34L15.39 1.34Q9.09 1.34 4.96-1.50L4.96-1.50L4.96-1.50Q0.83-4.35 0.83-9.15L0.83-9.15L0.83-9.22L0.83-9.22Q0.83-11.58 1.57-13.34L1.57-13.34L1.57-13.34Q2.30-15.10 3.33-15.94L3.33-15.94L3.33-15.94Q5.44-17.66 7.17-17.79L7.17-17.79L7.94-17.86L7.94-17.86Q9.73-17.86 11.20-16.99L11.20-16.99L11.20-16.99Q12.67-16.13 12.67-14.59L12.67-14.59L12.67-14.59Q12.67-13.82 11.84-13.31L11.84-13.31L11.84-13.31Q11.01-12.80 10.40-11.78L10.40-11.78L10.40-11.78Q9.79-10.75 9.73-10.05L9.73-10.05L9.60-9.34L9.60-9.34Q9.60-5.44 13.18-4.16L13.18-4.16L13.18-4.16Q14.46-3.71 15.23-3.71L15.23-3.71L15.23-3.71Q18.75-3.71 20.90-5.82L20.90-5.82L20.90-5.82Q23.04-7.94 23.04-11.20L23.04-11.20L23.04-11.20Q23.04-15.10 19.71-17.54L19.71-17.54L19.71-17.54Q17.22-19.33 14.30-20.54L14.30-20.54L14.30-20.54Q11.39-21.76 10.37-22.27L10.37-22.27L10.37-22.27Q9.34-22.78 8.19-23.49L8.19-23.49L8.19-23.49Q7.04-24.19 5.63-25.47L5.63-25.47L5.63-25.47Q2.56-28.16 2.56-32.74L2.56-32.74L2.56-32.74Q2.56-37.31 5.06-40.45L5.06-40.45L5.06-40.45Q9.54-46.14 18.50-46.14L18.50-46.14L18.50-46.14Q23.23-46.14 26.50-44.32L26.50-44.32L26.50-44.32Q29.76-42.50 29.76-39.30L29.76-39.30L29.76-39.30Q29.76-36.99 28.45-35.46L28.45-35.46L28.45-35.46Q27.14-33.92 25.09-33.92L25.09-33.92L25.09-33.92Q24.13-33.92 23.20-34.30L23.20-34.30L23.20-34.30Q22.27-34.69 22.27-35.46ZM51.20-36.67L51.20-36.67L51.20-36.67Q46.14-30.34 43.90-24L43.90-24L43.97-24L43.97-24Q52.86-24 54.18-23.97L54.18-23.97L54.18-23.97Q55.49-23.94 55.62-24.06L55.62-24.06L55.62-24.06Q55.74-24.19 55.81-24.38L55.81-24.38L55.81-24.38Q54.72-32.26 54.08-35.10L54.08-35.10L54.08-35.10Q53.44-37.95 52.80-37.95L52.80-37.95L52.80-37.95Q52.16-37.95 51.20-36.67ZM45.50-6.53L45.50-6.53L46.91-6.78L46.91-6.78Q47.55-6.78 47.55-6.08L47.55-6.08L47.55-6.08Q47.55-3.84 46.66-2.30L46.66-2.30L46.66-2.30Q45.76-0.77 44.42-0.13L44.42-0.13L44.42-0.13Q42.24 0.96 40.70 0.96L40.70 0.96L40.70 0.96Q37.76 0.96 36.29-1.25L36.29-1.25L36.29-1.25Q34.82-3.46 34.82-7.90L34.82-7.90L34.82-7.90Q34.82-12.35 37.25-19.46L37.25-19.46L33.54-19.46L33.54-19.46Q32.83-19.46 32.83-20.16L32.83-20.16L32.83-20.16Q32.83-20.86 33.92-22.43L33.92-22.43L33.92-22.43Q35.01-24 36.22-24L36.22-24L39.10-24L39.10-24Q43.65-34.11 49.79-41.47L49.79-41.47L49.79-41.47Q51.39-43.39 53.73-45.06L53.73-45.06L53.73-45.06Q56.06-46.72 57.34-46.72L57.34-46.72L57.34-46.72Q58.62-46.72 59.26-45.57L59.26-45.57L59.26-45.57Q60.93-42.88 63.17-25.92L63.17-25.92L63.17-25.92Q63.94-18.62 65.82-10.85L65.82-10.85L65.82-10.85Q67.71-3.07 69.31-1.79L69.31-1.79L69.31-1.79Q69.70-1.54 69.70-1.15L69.70-1.15L69.70-1.15Q69.70-0.19 66.98 0.64L66.98 0.64L66.98 0.64Q64.26 1.47 62.82 1.47L62.82 1.47L62.82 1.47Q61.38 1.47 60.61 1.12L60.61 1.12L60.61 1.12Q59.84 0.77 59.65 0.38L59.65 0.38L59.65 0.38Q58.50-2.11 57.34-11.52L57.34-11.52L56.96-14.53L56.96-14.53Q56.70-17.54 56.45-19.07L56.45-19.07L56-19.39L42.62-19.46L42.62-19.46Q41.86-16.19 41.86-13.76L41.86-13.76L41.86-13.76Q41.86-11.33 42.02-10.21L42.02-10.21L42.02-10.21Q42.18-9.09 43.07-7.81L43.07-7.81L43.07-7.81Q43.97-6.53 45.50-6.53ZM72.77-24.90L72.77-24.90L72.45-36.99L72.45-36.99Q72.45-39.87 71.81-41.54L71.81-41.54L71.81-41.54Q71.17-43.20 71.17-43.33L71.17-43.33L71.17-43.33Q71.17-44.74 75.49-45.50L75.49-45.50L75.49-45.50Q79.81-46.27 82.08-46.27L82.08-46.27L82.08-46.27Q84.35-46.27 84.54-45.18L84.54-45.18L84.54-45.18Q88.58-27.20 91.33-20.22L91.33-20.22L91.33-20.22Q91.65-19.46 92.00-19.46L92.00-19.46L92.00-19.46Q92.35-19.46 92.61-20.03L92.61-20.03L92.61-20.03Q96.90-32.13 100.16-43.97L100.16-43.97L100.16-43.97Q100.42-44.74 101.44-45.15L101.44-45.15L101.44-45.15Q102.46-45.57 104.99-45.95L104.99-45.95L104.99-45.95Q107.52-46.34 110.02-46.34L110.02-46.34L110.02-46.34Q112.51-46.34 112.51-45.31L112.51-45.31L112.51-45.31Q112.51-45.25 112.32-44.32L112.32-44.32L112.32-44.32Q112.13-43.39 111.94-42.05L111.94-42.05L111.94-42.05Q111.74-40.70 111.49-38.78L111.49-38.78L111.49-38.78Q110.91-34.37 110.75-28.64L110.75-28.64L110.75-28.64Q110.59-22.91 110.59-17.15L110.59-17.15L110.72-10.43L110.72-10.43Q110.72-5.82 111.33-3.87L111.33-3.87L111.33-3.87Q111.94-1.92 111.94-1.63L111.94-1.63L111.94-1.63Q111.94-1.34 111.49-0.96L111.49-0.96L111.49-0.96Q109.50 0.64 105.47 0.64L105.47 0.64L105.47 0.64Q102.91 0.64 102.59-1.09L102.59-1.09L102.59-1.09Q102.40-1.98 102.40-3.94L102.40-3.94L102.40-3.94Q102.40-5.89 102.78-15.94L102.78-15.94L102.78-15.94Q103.17-25.98 103.17-30.56L103.17-30.56L103.17-30.56Q103.17-35.14 102.66-35.14L102.66-35.14L102.66-35.14Q102.59-35.14 102.59-35.10L102.59-35.10L102.59-35.10Q102.59-35.07 102.40-35.01L102.40-35.01L102.40-35.01Q102.21-34.94 101.41-33.02L101.41-33.02L101.41-33.02Q100.61-31.10 98.24-23.55L98.24-23.55L98.24-23.55Q95.87-16 93.95-9.44L93.95-9.44L93.95-9.44Q92.03-2.88 91.84-2.37L91.84-2.37L91.84-2.37Q91.14-0.64 89.15-0.64L89.15-0.64L89.15-0.64Q88.19-0.64 87.62-1.34L87.62-1.34L87.62-1.34Q85.57-10.82 80.32-28.42L80.32-28.42L78.53-34.24L78.53-34.24Q78.40-34.56 78.27-34.56L78.27-34.56L78.27-34.56Q77.95-34.56 77.82-34.11L77.82-34.11L77.82-34.11Q77.57-29.95 77.57-17.76L77.57-17.76L77.57-17.76Q77.57-5.57 78.46-2.37L78.46-2.37L78.46-2.37Q78.53-2.24 78.53-1.98L78.53-1.98L78.53-1.98Q78.53-0.64 76.42-0.03L76.42-0.03L76.42-0.03Q74.30 0.58 72.61 0.58L72.61 0.58L72.61 0.58Q70.91 0.58 70.91-0.19L70.91-0.19L70.91-0.19Q70.91-0.26 71.23-1.22L71.23-1.22L71.23-1.22Q72.19-4.48 72.48-10.69L72.48-10.69L72.48-10.69Q72.77-16.90 72.77-24.90ZM125.95-28.35L125.95-28.35L125.95-28.35Q125.95-8.51 126.85-2.37L126.85-2.37L126.85-2.37Q126.85-0.83 123.90 0.16L123.90 0.16L123.90 0.16Q120.96 1.15 119.04 1.15L119.04 1.15L119.04 1.15Q117.12 1.15 117.12 0.58L117.12 0.58L117.12 0.58Q117.12 0.19 117.31-0.38L117.31-0.38L117.31-0.38Q118.53-3.07 118.53-22.02L118.53-22.02L118.53-22.02Q118.53-39.94 116.99-41.92L116.99-41.92L116.74-42.30L116.74-42.30Q116.35-42.62 116.35-43.10L116.35-43.10L116.35-43.10Q116.35-43.58 117.06-43.90L117.06-43.90L117.06-43.90Q118.02-44.48 120.48-45.06L120.48-45.06L120.48-45.06Q122.94-45.63 124.93-45.63L124.93-45.63L124.93-45.63Q126.91-45.63 126.91-44.74L126.91-44.74L126.91-44.54L126.91-44.54Q126.14-37.89 125.95-28.35ZM153.73-24.45L152.77-24.26L152.77-24.26Q152.06-24.06 152.06-23.84L152.06-23.84L152.06-23.84Q152.06-23.62 153.60-23.04L153.60-23.04L153.60-23.04Q155.14-22.46 156.51-21.25L156.51-21.25L156.51-21.25Q157.89-20.03 158.46-18.30L158.46-18.30L158.46-18.30Q159.36-15.68 159.36-12.67L159.36-12.67L159.36-12.67Q159.36-9.66 159.81-7.71L159.81-7.71L159.81-7.71Q160.26-5.76 160.90-4.74L160.90-4.74L160.90-4.74Q162.18-2.56 163.26-2.05L163.26-2.05L163.71-1.79L163.71-1.79Q164.10-1.54 164.10-1.15L164.10-1.15L164.10-1.15Q164.10-0.19 160.96 0.54L160.96 0.54L160.96 0.54Q157.82 1.28 156.10 1.28L156.10 1.28L156.10 1.28Q152.70 1.28 151.78-1.44L151.78-1.44L151.78-1.44Q150.85-4.16 150.85-10.75L150.85-10.75L150.85-14.27L150.85-14.27Q150.85-19.84 147.52-21.38L147.52-21.38L147.52-21.38Q146.24-21.95 144.45-21.95L144.45-21.95L144.38-21.95L144.38-21.95Q143.81-21.95 143.81-23.07L143.81-23.07L143.81-23.07Q143.81-24.19 144.48-25.34L144.48-25.34L144.48-25.34Q145.15-26.50 145.66-26.50L145.66-26.50L145.66-26.50Q147.78-26.50 149.31-27.30L149.31-27.30L149.31-27.30Q150.85-28.10 151.55-29.25L151.55-29.25L151.55-29.25Q153.02-31.68 153.15-33.41L153.15-33.41L153.15-34.24L153.15-34.24Q153.15-36.61 152.38-38.24L152.38-38.24L152.38-38.24Q151.62-39.87 150.46-40.51L150.46-40.51L150.46-40.51Q148.54-41.54 146.56-41.54L146.56-41.54L146.56-41.54Q144.58-41.54 143.30-41.22L143.30-41.22L143.30-41.22Q141.50-40.70 141.50-40.13L141.50-40.13L141.50-40.13Q140.93-31.74 140.93-23.97L140.93-23.97L140.93-23.97Q140.93-16.19 141.15-12.06L141.15-12.06L141.15-12.06Q141.38-7.94 141.60-5.41L141.60-5.41L141.60-5.41Q141.82-2.88 141.82-2.43L141.82-2.43L141.82-2.43Q141.82-1.60 141.38-1.28L141.38-1.28L141.38-1.28Q138.75 1.15 133.12 1.15L133.12 1.15L133.12 1.15Q132.16 1.15 132.16 0.51L132.16 0.51L132.16 0.51Q132.16 0.32 132.35-0.38L132.35-0.38L132.35-0.38Q132.99-1.86 133.28-9.73L133.28-9.73L133.28-9.73Q133.57-17.60 133.57-24.10L133.57-24.10L133.57-24.10Q133.57-30.59 133.31-34.62L133.31-34.62L133.31-34.62Q132.93-40.70 132.03-41.92L132.03-41.92L132.03-41.92Q131.33-42.82 131.33-43.17L131.33-43.17L131.33-43.17Q131.33-43.52 132.03-43.90L132.03-43.90L132.03-43.90Q136.13-45.82 146.88-45.82L146.88-45.82L146.88-45.82Q155.52-45.82 159.81-40.96L159.81-40.96L159.81-40.96Q162.11-38.27 162.11-34.24L162.11-34.24L162.11-34.24Q162.11-31.81 161.15-29.89L161.15-29.89L161.15-29.89Q160.19-27.97 158.78-26.94L158.78-26.94L158.78-26.94Q156.10-24.90 153.73-24.45L153.73-24.45Z" fill="#ffffff"></path></g></g><style>text {
  font-size: 64px;
  font-family: Arial Black;
  dominant-baseline: central;
  text-anchor: middle;
}</style></svg>